<svg xmlns="http://www.w3.org/2000/svg" width="22" height="22" viewBox="0 0 512 512">
  <path fill="#fed330" d="M416 192c0 35.35-28.65 64-64 64H160c-35.35 0-64-28.65-64-64s28.65-64 64-64h192c35.35 0 64 28.65 64 64z"/>
  <path fill="#f0932b" d="M377.414 256l-28.627 56.732c-.453.895-.963 1.758-1.53 2.586l-72.475 108.711c-3.507 5.25-9.272 8.369-15.376 8.369s-11.869-3.119-15.376-8.369l-72.475-108.711c-.568-.828-1.077-1.691-1.53-2.586L134.586 256c-5.899-11.688-5.899-25.622 0-37.311l28.627-56.732c.453-.895.963-1.758 1.53-2.586l72.475-108.711c3.507-5.25 9.272-8.369 15.376-8.369s11.869 3.119 15.376 8.369l72.475 108.711c.568.828 1.077 1.691 1.53 2.586L377.414 219c5.899 11.688 5.899 25.622 0 37.311z"/>
  <path fill="#fff" d="M304 128h-96a8 8 0 0 0 0 16h96a8 8 0 0 0 0-16z"/>
  <path fill="#fff" d="M304 176h-96a8 8 0 0 0 0 16h96a8 8 0 0 0 0-16z"/>
  <path fill="#fff" d="M304 224h-96a8 8 0 0 0 0 16h96a8 8 0 0 0 0-16z"/>
  <path fill="#fff" d="M304 272h-96a8 8 0 0 0 0 16h96a8 8 0 0 0 0-16z"/>
  <path fill="#fff" d="M304 320h-96a8 8 0 0 0 0 16h96a8 8 0 0 0 0-16z"/>
  <path fill="#fff" d="M304 368h-96a8 8 0 0 0 0 16h96a8 8 0 0 0 0-16z"/>
</svg>
